<svg xmlns="http://www.w3.org/2000/svg" width="1200" height="2260" viewBox="0 0 1200 2260">
<defs>
<linearGradient id="bg" x1="0" y1="0" x2="1" y2="1"><stop stop-color="#020409"/><stop offset=".55" stop-color="#06111a"/><stop offset="1" stop-color="#10091c"/></linearGradient>
<linearGradient id="n"><stop stop-color="#48e7ff"/><stop offset=".5" stop-color="#fff"/><stop offset="1" stop-color="#aa7cff"/></linearGradient>
<filter id="gl"><feGaussianBlur stdDeviation="16"/></filter>
<filter id="sm"><feGaussianBlur stdDeviation="4"/></filter>
<pattern id="st" width="120" height="120" patternUnits="userSpaceOnUse"><circle cx="18" cy="25" r="1" fill="#fff" opacity=".6"/><circle cx="83" cy="78" r="1.2" fill="#67e8f9" opacity=".55"/><circle cx="108" cy="35" r=".8" fill="#a78bfa" opacity=".55"/></pattern>
<pattern id="gr" width="70" height="70" patternUnits="userSpaceOnUse"><path d="M70 0H0V70" fill="none" stroke="#fff" stroke-opacity=".035"/></pattern>
</defs>
<rect width="1200" height="2260" fill="url(#bg)"/><rect width="1200" height="2260" fill="url(#st)"/><rect width="1200" height="2260" fill="url(#gr)"/>
<circle cx="1040" cy="170" r="190" fill="#2563eb" opacity=".12" filter="url(#gl)"><animate attributeName="r" values="150;230;150" dur="7s" repeatCount="indefinite"/></circle>
<circle cx="130" cy="930" r="170" fill="#06b6d4" opacity=".08" filter="url(#gl)"><animate attributeName="cx" values="100;180;100" dur="8s" repeatCount="indefinite"/></circle>
<circle cx="1060" cy="1630" r="210" fill="#7c3aed" opacity=".08" filter="url(#gl)"><animate attributeName="r" values="160;240;160" dur="9s" repeatCount="indefinite"/></circle>

<!-- HERO / reference-like -->
<rect x="18" y="18" width="1164" height="405" rx="30" fill="#03060b" stroke="url(#n)" stroke-width="1.5"/>
<rect x="40" y="40" width="300" height="235" rx="18" fill="#050a11" stroke="#334155"/>
<circle cx="62" cy="62" r="6" fill="#ff5f57"/><circle cx="83" cy="62" r="6" fill="#ffbd2e"/><circle cx="104" cy="62" r="6" fill="#28c840"/>
<text x="60" y="100" fill="#dbeafe" font-family="monospace" font-size="16">Sparkjosh24@github:~$</text>
<text x="60" y="133" fill="#67e8f9" font-family="monospace" font-size="14">&gt; AI &amp; Data Science</text><text x="60" y="161" fill="#cbd5e1" font-family="monospace" font-size="14">&gt; Machine Learning</text><text x="60" y="189" fill="#cbd5e1" font-family="monospace" font-size="14">&gt; Deep Learning</text><text x="60" y="217" fill="#cbd5e1" font-family="monospace" font-size="14">&gt; Computer Vision</text><text x="60" y="245" fill="#a78bfa" font-family="monospace" font-size="14">&gt; Building practical AI</text><rect x="60" y="258" width="10" height="17" fill="#67e8f9"><animate attributeName="opacity" values="1;0;1" dur="1s" repeatCount="indefinite"/></rect>

<!-- futuristic desk/person illustration -->
<rect x="800" y="55" width="330" height="220" rx="22" fill="#060b12" stroke="#1e3a5f"/>
<rect x="835" y="82" width="115" height="72" rx="5" fill="#07121c" stroke="#67e8f9"/><path d="M850 105h78M850 120h60M850 135h88" stroke="#67e8f9" opacity=".7"/><rect x="970" y="82" width="125" height="72" rx="5" fill="#0b0918" stroke="#a78bfa"/><path d="M985 105h80M985 120h92M985 135h55" stroke="#a78bfa" opacity=".7"/>
<path d="M900 250 Q930 190 965 170 Q1000 190 1030 250Z" fill="#0c1420" stroke="#67e8f9" stroke-opacity=".55"/>
<circle cx="965" cy="165" r="32" fill="#111b29" stroke="#a78bfa"/><path d="M938 162 Q965 130 992 162" fill="none" stroke="#67e8f9" stroke-width="4"/><path d="M890 255H1045" stroke="#334155" stroke-width="8"/>
<circle cx="850" cy="188" r="4" fill="#67e8f9"><animate attributeName="cx" values="850;1080;850" dur="5s" repeatCount="indefinite"/></circle>

<text x="375" y="105" fill="#fff" font-family="Arial" font-size="31">Hi, I’m</text>
<text x="375" y="158" fill="url(#n)" font-family="Arial" font-size="48" font-weight="700">A.R. JOSHUA JEBERSON</text>
<text x="375" y="198" fill="#e2e8f0" font-family="Arial" font-size="22">AI Enthusiast • Problem Solver • Lifelong Learner</text>
<text x="375" y="242" fill="#dbeafe" font-family="Arial" font-size="19">“ Turning Ideas Into Intelligent Solutions ”</text>
<text x="375" y="283" fill="#67e8f9" font-family="monospace" font-size="14">AI • PYTHON • MACHINE LEARNING • DEEP LEARNING</text>

<!-- social buttons inside hero -->
<g font-family="Arial" font-size="13" font-weight="600">
<g><rect x="375" y="318" width="112" height="36" rx="18" fill="#071018" stroke="#334155"/><text x="431" y="341" text-anchor="middle" fill="#fff">◉ GitHub</text></g>
<g><rect x="497" y="318" width="120" height="36" rx="18" fill="#071018" stroke="#0ea5e9"/><text x="557" y="341" text-anchor="middle" fill="#67e8f9">in LinkedIn</text></g>
<g><rect x="627" y="318" width="122" height="36" rx="18" fill="#071018" stroke="#8b5cf6"/><text x="688" y="341" text-anchor="middle" fill="#d8b4fe">◎ Instagram</text></g>
<g><rect x="759" y="318" width="120" height="36" rx="18" fill="#071018" stroke="#22c55e"/><text x="819" y="341" text-anchor="middle" fill="#86efac">◉ WhatsApp</text></g>
<g><rect x="889" y="318" width="105" height="36" rx="18" fill="#071018" stroke="#67e8f9"/><text x="941" y="341" text-anchor="middle" fill="#67e8f9">▣ Resume</text></g>
<g><rect x="1004" y="318" width="105" height="36" rx="18" fill="#071018" stroke="#64748b"/><text x="1056" y="341" text-anchor="middle" fill="#e2e8f0">✉ Email</text></g>
</g>
<path d="M375 370H1110" stroke="url(#n)" stroke-width="2"><animate attributeName="d" values="M375 370H500;M375 370H1110;M375 370H700;M375 370H375" dur="6s" repeatCount="indefinite"/></path>

<!-- ABOUT -->
<rect x="18" y="447" width="1164" height="285" rx="30" fill="#050a11" stroke="#155e75"/>
<circle cx="95" cy="505" r="30" fill="#071a24" stroke="#67e8f9"/><text x="95" y="515" text-anchor="middle" fill="#67e8f9" font-size="26">✦</text>
<text x="145" y="515" fill="#fff" font-family="Arial" font-size="32" font-weight="700">About Me</text>
<text x="65" y="566" fill="#e2e8f0" font-family="Arial" font-size="17">I’m an AI &amp; Data Science enthusiast focused on solving real-world problems</text>
<text x="65" y="594" fill="#e2e8f0" font-family="Arial" font-size="17">using Machine Learning, Deep Learning and modern software technologies.</text>
<text x="65" y="622" fill="#94a3b8" font-family="Arial" font-size="16">I enjoy turning ideas into useful projects and continuously learning to grow.</text>
<g font-family="Arial" font-size="12"><rect x="65" y="653" width="185" height="34" rx="17" fill="#07151c" stroke="#155e75"/><text x="157" y="675" text-anchor="middle" fill="#67e8f9">✦ Open to Opportunities</text><rect x="262" y="653" width="170" height="34" rx="17" fill="#090f17" stroke="#334155"/><text x="347" y="675" text-anchor="middle" fill="#cbd5e1">◈ AI / ML Enthusiast</text><rect x="444" y="653" width="150" height="34" rx="17" fill="#0d0a18" stroke="#4c1d95"/><text x="519" y="675" text-anchor="middle" fill="#c4b5fd">⚙ Problem Solver</text></g>
<rect x="865" y="478" width="270" height="185" rx="25" fill="#070c14" stroke="#334155"/>
<circle cx="1000" cy="565" r="58" fill="none" stroke="url(#n)" stroke-width="2"><animate attributeName="r" values="46;70;46" dur="4s" repeatCount="indefinite"/></circle><text x="1000" y="555" text-anchor="middle" fill="#fff" font-family="Arial" font-size="18" font-weight="700">SMALL STEPS</text><text x="1000" y="583" text-anchor="middle" fill="#a78bfa" font-family="Arial" font-size="18" font-weight="700">BIG PROGRESS</text>

<!-- WHAT I BUILD -->
<text x="65" y="795" fill="#fff" font-family="Arial" font-size="34" font-weight="700">⚙ What I Build</text><text x="65" y="824" fill="#67e8f9" font-family="Arial" font-size="16">Ideas → Code → Real Impact</text>
<g font-family="Arial" text-anchor="middle">
<g><rect x="55" y="855" width="255" height="155" rx="20" fill="#07121b" stroke="#0ea5e9"/><text x="182" y="900" fill="#67e8f9" font-size="28">◉</text><text x="182" y="938" fill="#fff" font-size="20" font-weight="700">AI Solutions</text><text x="182" y="968" fill="#cbd5e1" font-size="13">Intelligent systems for</text><text x="182" y="989" fill="#cbd5e1" font-size="13">real-world problems</text><circle cx="285" cy="875" r="5" fill="#67e8f9"><animate attributeName="opacity" values=".1;1;.1" dur="1.8s" repeatCount="indefinite"/></circle></g>
<g><rect x="325" y="855" width="255" height="155" rx="20" fill="#071514" stroke="#14b8a6"/><text x="452" y="900" fill="#2dd4bf" font-size="28">▥</text><text x="452" y="938" fill="#fff" font-size="20" font-weight="700">Data-Driven Apps</text><text x="452" y="968" fill="#cbd5e1" font-size="13">Turning data into</text><text x="452" y="989" fill="#cbd5e1" font-size="13">meaningful insights</text><circle cx="555" cy="875" r="5" fill="#2dd4bf"><animate attributeName="r" values="3;9;3" dur="2s" repeatCount="indefinite"/></circle></g>
<g><rect x="595" y="855" width="255" height="155" rx="20" fill="#0d0a18" stroke="#8b5cf6"/><text x="722" y="900" fill="#a78bfa" font-size="28">&lt;/&gt;</text><text x="722" y="938" fill="#fff" font-size="20" font-weight="700">Web Applications</text><text x="722" y="968" fill="#cbd5e1" font-size="13">Modern, scalable</text><text x="722" y="989" fill="#cbd5e1" font-size="13">user-focused applications</text><circle cx="825" cy="875" r="5" fill="#a78bfa"><animate attributeName="opacity" values=".1;1;.1" dur="2.2s" repeatCount="indefinite"/></circle></g>
<g><rect x="865" y="855" width="280" height="155" rx="20" fill="#07121b" stroke="#22d3ee"/><text x="1005" y="900" fill="#67e8f9" font-size="28">✦</text><text x="1005" y="938" fill="#fff" font-size="20" font-weight="700">Creative Projects</text><text x="1005" y="968" fill="#cbd5e1" font-size="13">Exploring new ideas</text><text x="1005" y="989" fill="#cbd5e1" font-size="13">with technology</text><circle cx="1120" cy="875" r="5" fill="#67e8f9"><animate attributeName="opacity" values="1;.1;1" dur="2.5s" repeatCount="indefinite"/></circle></g>
</g>
<g><rect x="515" y="1038" width="170" height="4" rx="2" fill="#334155"/><rect x="515" y="1038" width="50" height="4" rx="2" fill="#67e8f9"><animate attributeName="x" values="515;635;515" dur="4s" repeatCount="indefinite"/></rect></g>

<!-- FEATURED -->
<rect x="18" y="1080" width="1164" height="365" rx="30" fill="#050a11" stroke="#263449"/>
<text x="65" y="1140" fill="#fff" font-family="Arial" font-size="34" font-weight="700">🚀 Featured Work</text><text x="65" y="1168" fill="#67e8f9" font-family="Arial" font-size="16">Some of my key AI &amp; Python projects</text>
<g font-family="Arial">
<g><rect x="55" y="1200" width="255" height="180" rx="20" fill="#07121b" stroke="#0ea5e9"/><text x="78" y="1240" fill="#67e8f9" font-size="20" font-weight="700">DEEPSHIELD</text><rect x="232" y="1218" width="57" height="25" rx="12" fill="#063d38" stroke="#34d399"/><text x="260" y="1235" text-anchor="middle" fill="#6ee7b7" font-size="11">LIVE</text><text x="78" y="1275" fill="#fff" font-size="15">Deepfake Detection</text><text x="78" y="1303" fill="#cbd5e1" font-size="12">AI • Deep Learning</text><text x="78" y="1327" fill="#94a3b8" font-size="12">Computer Vision</text><circle cx="270" cy="1352" r="4" fill="#67e8f9"><animate attributeName="r" values="3;8;3" dur="1.6s" repeatCount="indefinite"/></circle></g>
<g><rect x="325" y="1200" width="255" height="180" rx="20" fill="#071514" stroke="#14b8a6"/><text x="348" y="1240" fill="#2dd4bf" font-size="19" font-weight="700">Speech Emotion</text><rect x="502" y="1218" width="57" height="25" rx="12" fill="#063d38" stroke="#34d399"/><text x="530" y="1235" text-anchor="middle" fill="#6ee7b7" font-size="11">LIVE</text><text x="348" y="1275" fill="#fff" font-size="15">Real-time Speech AI</text><text x="348" y="1303" fill="#cbd5e1" font-size="12">MFCC • LSTM / DNN</text><text x="348" y="1327" fill="#94a3b8" font-size="12">RAVDESS • TESS</text><circle cx="540" cy="1352" r="4" fill="#2dd4bf"><animate attributeName="opacity" values=".1;1;.1" dur="2s" repeatCount="indefinite"/></circle></g>
<g><rect x="595" y="1200" width="255" height="180" rx="20" fill="#0d0a18" stroke="#8b5cf6"/><text x="618" y="1240" fill="#c4b5fd" font-size="18" font-weight="700">Question Paper</text><rect x="772" y="1218" width="57" height="25" rx="12" fill="#24114d" stroke="#a78bfa"/><text x="800" y="1235" text-anchor="middle" fill="#ddd6fe" font-size="11">LIVE</text><text x="618" y="1275" fill="#fff" font-size="15">Flask Generator</text><text x="618" y="1303" fill="#cbd5e1" font-size="12">Python • Flask</text><text x="618" y="1327" fill="#94a3b8" font-size="12">Structured output</text><circle cx="810" cy="1352" r="4" fill="#a78bfa"><animate attributeName="r" values="3;8;3" dur="2s" repeatCount="indefinite"/></circle></g>
<g><rect x="865" y="1200" width="280" height="180" rx="20" fill="#07121b" stroke="#22d3ee"/><text x="888" y="1240" fill="#67e8f9" font-size="19" font-weight="700">NVD CVE Project</text><rect x="1065" y="1218" width="57" height="25" rx="12" fill="#063d38" stroke="#34d399"/><text x="1093" y="1235" text-anchor="middle" fill="#6ee7b7" font-size="11">LIVE</text><text x="888" y="1275" fill="#fff" font-size="15">Vulnerability Data</text><text x="888" y="1303" fill="#cbd5e1" font-size="12">Python • NVD API</text><text x="888" y="1327" fill="#94a3b8" font-size="12">Security data processing</text><circle cx="1115" cy="1352" r="4" fill="#67e8f9"><animate attributeName="opacity" values=".1;1;.1" dur="2.3s" repeatCount="indefinite"/></circle></g></g>
<g><rect x="515" y="1405" width="170" height="4" rx="2" fill="#334155"/><rect x="515" y="1405" width="52" height="4" rx="2" fill="#67e8f9"><animate attributeName="x" values="515;633;515" dur="4s" repeatCount="indefinite"/></rect></g>

<!-- TECH -->
<rect x="18" y="1480" width="1164" height="285" rx="30" fill="#050a11" stroke="#263449"/>
<text x="65" y="1538" fill="#fff" font-family="Arial" font-size="34" font-weight="700">&lt;/&gt; Tech Stack</text><text x="65" y="1566" fill="#67e8f9" font-family="Arial" font-size="16">Technologies I work with</text>
<g font-family="Arial" text-anchor="middle">
<g><rect x="55" y="1600" width="120" height="90" rx="18" fill="#080f17" stroke="#334155"/><text x="115" y="1637" fill="#ffd43b" font-size="22" font-weight="700">Py</text><text x="115" y="1666" fill="#fff" font-size="13">Python</text></g>
<g><rect x="190" y="1600" width="120" height="90" rx="18" fill="#080f17" stroke="#334155"/><text x="250" y="1637" fill="#67e8f9" font-size="22">∿</text><text x="250" y="1666" fill="#fff" font-size="13">NumPy</text></g>
<g><rect x="325" y="1600" width="120" height="90" rx="18" fill="#080f17" stroke="#334155"/><text x="385" y="1637" fill="#a78bfa" font-size="22" font-weight="700">ML</text><text x="385" y="1666" fill="#fff" font-size="13">Machine Learning</text></g>
<g><rect x="460" y="1600" width="120" height="90" rx="18" fill="#080f17" stroke="#334155"/><text x="520" y="1637" fill="#ff7043" font-size="22" font-weight="700">CV</text><text x="520" y="1666" fill="#fff" font-size="13">OpenCV</text></g>
<g><rect x="595" y="1600" width="120" height="90" rx="18" fill="#080f17" stroke="#334155"/><text x="655" y="1637" fill="#fff" font-size="22" font-weight="700">F</text><text x="655" y="1666" fill="#fff" font-size="13">Flask</text></g>
<g><rect x="730" y="1600" width="120" height="90" rx="18" fill="#080f17" stroke="#334155"/><text x="790" y="1637" fill="#67e8f9" font-size="21" font-weight="700">SQL</text><text x="790" y="1666" fill="#fff" font-size="13">SQL</text></g>
<g><rect x="865" y="1600" width="120" height="90" rx="18" fill="#080f17" stroke="#334155"/><text x="925" y="1637" fill="#a78bfa" font-size="22" font-weight="700">Git</text><text x="925" y="1666" fill="#fff" font-size="13">Git / GitHub</text></g>
<g><rect x="1000" y="1600" width="145" height="90" rx="18" fill="#080f17" stroke="#334155"/><text x="1072" y="1637" fill="#fff" font-size="22">⌘</text><text x="1072" y="1666" fill="#fff" font-size="13">Linux</text></g></g>
<rect x="65" y="1720" width="250" height="3" fill="url(#n)"><animate attributeName="width" values="80;900;250" dur="7s" repeatCount="indefinite"/></rect>

<!-- ANALYTICS -->
<rect x="18" y="1800" width="1164" height="275" rx="30" fill="#050a11" stroke="#263449"/>
<text x="65" y="1858" fill="#fff" font-family="Arial" font-size="34" font-weight="700">📊 GitHub Analytics</text><text x="65" y="1886" fill="#67e8f9" font-family="Arial" font-size="16">Live cards + contribution activity</text>
<g font-family="Arial" text-anchor="middle">
<g><rect x="65" y="1920" width="250" height="105" rx="20" fill="#07121b" stroke="#22d3ee"/><text x="190" y="1952" fill="#67e8f9" font-size="13">REPOSITORIES</text><text x="190" y="1988" fill="#fff" font-size="20" font-weight="700">Live GitHub Card</text><circle cx="280" cy="1940" r="5" fill="#67e8f9"><animate attributeName="r" values="3;9;3" dur="2s" repeatCount="indefinite"/></circle></g>
<g><rect x="335" y="1920" width="250" height="105" rx="20" fill="#080f17" stroke="#334155"/><text x="460" y="1952" fill="#cbd5e1" font-size="13">TOP LANGUAGES</text><text x="460" y="1988" fill="#fff" font-size="20" font-weight="700">Live Language Card</text><rect x="390" y="2003" width="140" height="3" fill="#334155"/><rect x="390" y="2003" width="55" height="3" fill="#67e8f9"><animate attributeName="width" values="20;140;55" dur="3s" repeatCount="indefinite"/></rect></g>
<g><rect x="605" y="1920" width="250" height="105" rx="20" fill="#0d0a18" stroke="#8b5cf6"/><text x="730" y="1952" fill="#c4b5fd" font-size="13">STREAK</text><text x="730" y="1988" fill="#fff" font-size="20" font-weight="700">Live Streak Card</text><circle cx="730" cy="2007" r="4" fill="#a78bfa"><animate attributeName="opacity" values=".1;1;.1" dur="1.8s" repeatCount="indefinite"/></circle></g>
<g><rect x="875" y="1920" width="260" height="105" rx="20" fill="#07121b" stroke="#22d3ee"/><text x="1005" y="1952" fill="#67e8f9" font-size="13">CONTRIBUTIONS</text><text x="1005" y="1988" fill="#fff" font-size="20" font-weight="700">Animated Snake</text><path d="M930 2007h150" stroke="url(#n)" stroke-width="3"><animate attributeName="d" values="M930 2007h30;M930 2007h150;M930 2007h70" dur="4s" repeatCount="indefinite"/></path></g></g>

<!-- THANKS -->
<rect x="18" y="2110" width="1164" height="130" rx="28" fill="#03060b" stroke="url(#n)"/>
<text x="600" y="2162" text-anchor="middle" fill="#fff" font-family="Arial" font-size="30" font-weight="700">✈ Thanks for Visiting!</text>
<text x="600" y="2193" text-anchor="middle" fill="#67e8f9" font-family="monospace" font-size="13">KEEP LEARNING • KEEP BUILDING • KEEP CREATING</text>
<circle cx="600" cy="2215" r="4" fill="#fff"><animate attributeName="r" values="3;8;3" dur="2s" repeatCount="indefinite"/></circle>
</svg>